<?xml version="1.0" encoding="UTF-8" standalone="no"?>
<!-- Created with Inkscape (http://www.inkscape.org/) -->

<svg
   width="210mm"
   height="297mm"
   viewBox="0 0 210 297"
   version="1.1"
   id="svg5"
   inkscape:version="1.2.1 (0f2f062aeb, 2022-09-21, custom)"
   sodipodi:docname="corazon.svg"
   xmlns:inkscape="http://www.inkscape.org/namespaces/inkscape"
   xmlns:sodipodi="http://sodipodi.sourceforge.net/DTD/sodipodi-0.dtd"
   xmlns="http://www.w3.org/2000/svg"
   xmlns:svg="http://www.w3.org/2000/svg">
  <sodipodi:namedview
     id="namedview7"
     pagecolor="#ffffff"
     bordercolor="#666666"
     borderopacity="1.0"
     inkscape:showpageshadow="2"
     inkscape:pageopacity="0.0"
     inkscape:pagecheckerboard="0"
     inkscape:deskcolor="#d1d1d1"
     inkscape:document-units="mm"
     showgrid="false"
     inkscape:zoom="0.56480079"
     inkscape:cx="414.30537"
     inkscape:cy="160.23349"
     inkscape:window-width="1464"
     inkscape:window-height="800"
     inkscape:window-x="72"
     inkscape:window-y="27"
     inkscape:window-maximized="1"
     inkscape:current-layer="layer1" />
  <defs
     id="defs2" />
  <g
     inkscape:label="Layer 1"
     inkscape:groupmode="layer"
     id="layer1">
    <path
       style="fill:#d40000;stroke:#000000;stroke-width:0.351447px;stroke-linecap:butt;stroke-linejoin:miter;stroke-opacity:1"
       d="m 33.103196,34.205822 c -1.558185,0.404313 -3.097272,0.981851 -4.674539,1.212937 -0.937656,0.137359 -1.855653,-0.13507 -2.792054,-0.119019 -0.662166,0.01134 -1.329043,0.178551 -1.991932,0.201002 -1.332359,0.04514 -2.655707,-0.02983 -3.987215,0.0016 -1.260398,0.02971 -2.529589,0.195204 -3.786341,0.181687 -3.435872,-0.03702 -6.8395108,-0.65247 -10.1774846,-1.177188 -0.2079248,-0.03269 -4.7080955,-0.681313 -5.3901079,-0.858709 -0.9544666,-0.248257 -1.8367211,-0.695176 -2.7988837,-0.919792 -0.6442092,-0.150398 -1.3569922,-0.03106 -1.9953185,-0.199423 -0.8397794,-0.221495 -1.575297,-0.698616 -2.4005149,-0.959994 -0.7780231,-0.24643 -1.6363541,-0.271864 -2.3971186,-0.559597 -0.7841868,-0.296602 -1.4501088,-0.819941 -2.2030288,-1.180288 -2.478146,-1.186037 -0.850843,-0.03503 -3.602499,-1.640183 -0.628448,-0.366598 -1.171157,-0.861988 -1.804644,-1.220478 -0.572026,-0.323709 -1.258049,-0.452737 -1.801228,-0.820085 -0.671523,-0.454141 -1.073069,-1.269106 -1.808059,-1.620871 -0.5889,-0.281846 -1.394178,0.05861 -1.995319,-0.199421 -0.583539,-0.250479 -0.905881,-0.878145 -1.406266,-1.260676 -0.505484,-0.38643 -1.09323,-0.66047 -1.603779,-1.040382 -0.866397,-0.644709 -1.607159,-1.44077 -2.410738,-2.161155 -1.272327,-1.140603 -2.544669,-2.281219 -3.817012,-3.421836 -1.473235,-1.320711 -2.94647,-2.641422 -4.419712,-3.96214 -0.669641,-0.600313 -1.396282,-1.141732 -2.008945,-1.800959 -0.372678,-0.401003 -0.642406,-0.893086 -1.007883,-1.300893 -0.240329,-0.268162 -0.622677,-0.405977 -0.803572,-0.720379 -0.303383,-0.527273 -0.347361,-1.191432 -0.612925,-1.741462 -0.07918,-0.163986 -0.326326,-0.19418 -0.401778,-0.360183 -0.169292,-0.372467 -0.692366,-2.843585 -0.626569,-3.343041 0.02794,-0.211878 0.195876,-0.409653 0.194078,-0.620678 -0.004,-0.471861 -0.207107,-0.90939 -0.211127,-1.381258 -0.0018,-0.211019 0.144903,-0.410831 0.194082,-0.620698 0.07931,-0.338383 0.08636,-0.687456 0.190677,-1.021059 0.09148,-0.292593 0.300059,-0.548386 0.391551,-0.8409727 0.104301,-0.3336157 0.04185,-0.7014555 0.190655,-1.0210786 0.123836,-0.2659255 0.430717,-0.4139436 0.592453,-0.6608732 0.170497,-0.2602985 0.215452,-0.5842684 0.391597,-0.8409938 0.445583,-0.6494442 1.053252,-1.1748889 1.579877,-1.7623319 0.197484,-0.2202906 0.39497,-0.4405834 0.592453,-0.6608732 0.329151,-0.3671628 0.549242,-0.8914534 0.987453,-1.1014893 0.844734,-0.404906 2.81276,-0.4327728 3.782906,-0.5820436 0.732034,-0.1126457 1.463,-0.2525795 2.189413,-0.4212908 0.800073,-0.1858156 1.582019,-0.4980453 2.38686,-0.6415701 1.720114,-0.3067314 3.452663,-0.3483566 5.178981,-0.5225498 3.300305,-0.3330065 2.38307,-0.3026214 5.778246,-0.3826454 0.731691,-0.017254 1.474819,-0.1051662 2.192795,-0.02089 1.829311,0.2147015 2.253812,0.5802634 3.796556,1.0195124 0.39323,0.1119548 0.827107,0.1170111 1.19854,0.279812 1.5531151,0.6806638 2.7795893,2.0944791 4.0145153,3.2015532 C -4.0064749,-3.5916848 -2.0032412,-1.7958458 0,0 0.1266639,0.11355 -0.2533128,-0.227087 -0.3799692,-0.340631 -0.69661766,-0.624497 -1.0132736,-0.90837 -1.3299146,-1.1922287 -1.731708,-1.5524245 -2.1335014,-1.9126202 -2.5352949,-2.272816 -2.8701265,-2.5729825 -3.2589149,-2.8207809 -3.5397822,-3.1733087 -4.0030739,-3.754607 -4.2887188,-4.4733048 -4.7519545,-5.0546656 -5.0328069,-5.40718 -5.5200776,-5.5688827 -5.7564418,-5.9551583 c -0.317193,-0.5181159 -0.3598097,-1.1846179 -0.6128877,-1.7414747 -0.3579208,-0.7875107 -0.8243964,-1.5128504 -1.215609,-2.2817411 -0.3523575,-0.6924899 -0.662374,-1.4091699 -1.014724,-2.1016529 -0.014909,-0.02831 -2.4295335,-4.559054 -2.4312095,-4.563492 -1.490087,-3.94837 -0.292854,-2.012671 -1.242861,-5.484874 -0.272163,-0.994781 -0.792768,-1.89292 -1.021523,-2.90243 -0.188637,-0.832467 -0.14756,-1.721644 -0.221336,-2.582464 -0.07379,-0.860804 -0.147571,-1.721616 -0.221374,-2.58242 -0.07377,-0.86082 -0.285866,-1.708112 -0.221353,-2.582443 0.05641,-0.764578 0.449782,-1.500196 0.578836,-2.262451 0.125023,-0.738418 0.06605,-1.483023 0.18044,-2.222233 0.113832,-0.735732 0.726519,-3.307607 0.960154,-4.304593 0.128249,-0.547255 0.157454,-1.11973 0.384751,-1.641751 0.237108,-0.544558 0.771099,-0.949078 0.984029,-1.501867 0.252454,-0.655284 0.172711,-1.374932 0.381327,-2.042145 0.5484124,-1.753907 0.8168569,-1.4585 1.569675,-2.963517 0.2359282,-0.471657 0.3087478,-1.010499 0.585636,-1.46166 0.2571111,-0.418877 0.6871812,-0.710662 0.9874227,-1.101457 0.4245744,-0.552661 0.7608178,-1.16662 1.1815289,-1.722155 0.4760117,-0.628481 1.0532527,-1.174889 1.579879,-1.762333 1.2081487,-1.347673 2.4148639,-3.027346 3.9531282,-4.005484 2.3695555,-1.506709 4.9482691,-1.839706 7.5556336,-2.365297 0.5977659,-0.120501 1.1904929,-0.356007 1.7910028,-0.381085 0.546862,-0.02284 1.061444,0.174169 1.5969368,0.239624 1.99e-4,1.7e-5 3.990417,0.398789 3.99061,0.398814 1.123174,0.224753 3.166043,1.040425 4.198386,1.379681 0.65969,0.216799 1.389056,0.280055 1.998717,0.599805 0.480402,0.251791 0.769454,0.761777 1.205366,1.080574 3.823668,2.796713 -2.518713,-2.655292 3.010029,2.301059 1.339311,1.200653 2.678615,2.401299 4.017912,3.601938 0.803586,0.720392 1.805365,1.261096 2.410745,2.161161 0.588325,0.874717 0.370739,2.161893 0.824039,3.122735 0.320544,0.679394 0.961059,1.167765 1.212207,1.881349 0.172271,0.489515 -0.07373,1.082616 0.01361,1.601574 0.219399,1.303777 0.971124,2.510042 0.830881,3.923508 -0.928348,8.041539 -1.856673,16.083126 -2.785013,24.124685 -0.130543,0.280299 -0.335841,0.542429 -0.39157,0.840979 -0.149572,0.800993 0.06665,1.597985 0.02044,2.402343 -0.03485,0.606983 -0.0975,1.215377 -0.183842,1.821856 -0.03438,1.5131248 -0.527717,2.9881865 -0.759277,4.484684 -0.07322,0.473238 -0.06212,0.9547329 -0.187238,1.4214703 -0.134735,0.5026634 -0.527225,0.9510272 -0.585632,1.4616404 -0.06947,0.6071444 0.284008,1.1745085 0.214548,1.7816595 -0.05844,0.5106222 -0.429869,0.9633998 -0.585664,1.4616908 -0.168706,0.539494 -0.238841,1.097451 -0.384745,1.641726 -0.111909,0.417458 -0.309317,0.819189 -0.388153,1.241356 -0.399186,2.137738 -0.07325,1.274933 -0.173632,3.023059 -0.03486,0.606969 -0.153667,1.215036 -0.18383,1.821827 -0.02667,0.536088 0.04984,1.065184 0.01364,1.601551 -0.04616,0.683784 -0.448408,1.37062 -0.381352,2.042175 0.04159,0.416475 0.367013,0.744485 0.408593,1.160972 0.03355,0.335773 -0.193549,0.680792 -0.190664,1.021058 0.0029,0.340277 0.167457,0.646464 0.207732,0.980887 0.07192,0.597212 -0.149833,1.918508 0.02045,2.402317 0.03041,0.08652 0.181703,0.08944 0.200922,0.180122 0.0543,0.256482 -0.03302,0.540328 0.0068,0.800786 0.03145,0.205937 0.172831,0.374587 0.204297,0.580486 0.03981,0.260458 -0.0598,0.548317 0.0068,0.800779 0.07447,0.282266 0.308901,0.486946 0.405204,0.760594 0.109822,0.31199 0.122788,0.659033 0.207717,0.980874 0.05259,0.199657 0.161368,0.377694 0.204298,0.580468 0.103868,0.490494 -0.194099,0.620584 0.01025,1.201174 0.121819,0.346127 0.607629,0.416128 0.80358,0.720385 0.109498,0.170121 0.08079,0.421078 0.204296,0.580486 0.292613,0.377642 1.593945,1.218974 1.808067,1.620877 0.838367,1.57367 -0.651687,-0.616369 0.609512,1.341053 0.09797,0.152118 0.316347,0.199859 0.401779,0.360182 0.191015,0.358556 0.322723,0.755433 0.4086,1.160979 0.05422,0.256011 -0.07892,0.554858 0.0068,0.799266 0.03001,0.08578 0.169055,0.09267 0.199106,0.178492 0.08565,0.244995 -0.07933,0.556038 0.0068,0.800783 0.03041,0.08652 0.170324,0.09363 0.2009,0.180101 0.0429,0.121635 -0.04886,0.281025 0.0034,0.398225 0.05359,0.120188 0.234176,0.140781 0.28991,0.259896 0.04982,0.106521 0.0021,0.243607 0.0031,0.365398 10e-4,0.125756 0.03667,0.25295 0.0032,0.377348 -0.240474,0.894691 -0.54704,1.775663 -0.820546,2.663488 z"
       id="path801" />
  </g>
</svg>
